<svg xmlns="http://www.w3.org/2000/svg" viewBox="0 0 160 160" width="160" height="160">
  
  <rect width="160" height="160" rx="28" fill="#0e1726"></rect>
  
  <g transform="translate(10 10)">
    
    <g>
      
      <polygon points="0,-15 11,15 -11,15" fill="#8aa9d9" transform="translate(71 19) rotate(-10)"></polygon>
      <polygon points="0,-15 11,15 -11,15" fill="#6f8fc4" transform="translate(93 27) rotate(35)"></polygon>
      <polygon points="0,-15 11,15 -11,15" fill="#8aa9d9" transform="translate(107 53) rotate(75)"></polygon>
      <polygon points="0,-15 11,15 -11,15" fill="#6f8fc4" transform="translate(109 79) rotate(110)"></polygon>
      <polygon points="0,-15 11,15 -11,15" fill="#8aa9d9" transform="translate(95 105) rotate(150)"></polygon>
      <polygon points="0,-15 11,15 -11,15" fill="#b9cef0" transform="translate(71 117) rotate(180)"></polygon>
      <polygon points="0,-15 11,15 -11,15" fill="#8aa9d9" transform="translate(47 111) rotate(215)"></polygon>
      <polygon points="0,-15 11,15 -11,15" fill="#6f8fc4" transform="translate(27 91) rotate(250)"></polygon>
      <polygon points="0,-15 11,15 -11,15" fill="#8aa9d9" transform="translate(19 65) rotate(285)"></polygon>
      <polygon points="0,-15 11,15 -11,15" fill="#6f8fc4" transform="translate(29 39) rotate(320)"></polygon>
      <polygon points="0,-15 11,15 -11,15" fill="#b9cef0" transform="translate(49 23) rotate(-30)"></polygon>
      
      <polygon points="0,-15 11,15 -11,15" fill="#b9cef0" transform="translate(61 49) rotate(15) scale(0.7)"></polygon>
      <polygon points="0,-15 11,15 -11,15" fill="#b9cef0" transform="translate(87 71) rotate(165) scale(0.7)"></polygon>
      <polygon points="0,-15 11,15 -11,15" fill="#b9cef0" transform="translate(55 85) rotate(245) scale(0.7)"></polygon>
    </g>
    
    <circle cx="70" cy="70" r="6" fill="#0e1726"></circle>
  </g>
</svg>
